<?xml version="1.0" encoding="UTF-8"?>
<svg id="Layer_1" data-name="Layer 1" xmlns="http://www.w3.org/2000/svg" width="77.11" height="77.28" viewBox="0 0 77.11 77.28">
  <rect x=".64" y="1.08" width="75.87" height="75.87" rx="2.21" ry="2.21" fill="#fbb03b"/>
  <path d="M66.15,11.59l-2.42-2.42c-.7-.7-1.84-.69-2.53.02l-10.74,11.13c-.64.66-1.67.71-2.38.13-9.4-7.6-21.11-12.42-33.9-13.3-1.02-.07-1.89.76-1.89,1.79v3.43c0,.93.72,1.68,1.65,1.75,10.89.8,20.9,4.83,29.03,11.18.82.64.89,1.88.16,2.63l-11.84,12.27c-.61.63-1.57.7-2.29.2-4.3-2.96-9.34-4.9-14.8-5.46-1.03-.11-1.91.74-1.91,1.78v3.43c0,.92.7,1.65,1.61,1.76,3.45.41,6.69,1.53,9.57,3.21,1,.58,1.2,1.95.39,2.78l-11.08,11.48c-.32.33-.5.77-.5,1.23v2.62c0,.98.79,1.77,1.77,1.77h2.23c.48,0,.94-.2,1.28-.54l11.4-11.81c.8-.83,2.15-.68,2.78.28,2.05,3.09,3.42,6.65,3.92,10.49.12.9.84,1.59,1.75,1.59h3.44c1.04,0,1.89-.89,1.77-1.92-.66-5.89-2.92-11.31-6.36-15.79-.54-.7-.51-1.69.1-2.32l11.81-12.24c.72-.75,1.94-.73,2.62.06,7.15,8.37,11.73,18.96,12.65,30.57.07.92.82,1.64,1.75,1.64h3.48c1.03,0,1.86-.88,1.79-1.9-1.01-13.58-6.51-25.92-15.01-35.56-.61-.69-.61-1.73.04-2.39l10.67-11.06c.67-.7.66-1.8-.02-2.48Z"/>
</svg>