<?xml version="1.0" encoding="UTF-8"?>
<svg id="Layer_1" data-name="Layer 1" xmlns="http://www.w3.org/2000/svg" width="401.96" height="81.96" viewBox="0 0 401.96 81.96">
  <g class="logotype" fill="#ffffff">
    <path d="M109.13,68.53V9.36h15.34c3.99,0,7.41.45,10.26,1.35,2.85.9,5.04,2.5,6.57,4.78,1.53,2.29,2.3,5.45,2.3,9.5,0,2.44-.21,4.59-.62,6.46s-1.14,3.51-2.19,4.89c-1.05,1.39-2.52,2.5-4.42,3.32l8.18,28.85h-12.35l-6.79-26.81h-4.24v26.81h-12.05ZM121.19,34.56h3.51c1.95,0,3.48-.32,4.6-.95,1.12-.63,1.91-1.59,2.37-2.89.46-1.29.69-2.88.69-4.78,0-2.73-.5-4.81-1.5-6.24-1-1.44-2.86-2.15-5.59-2.15h-4.09v17.02Z"/>
    <path d="M164.35,69.26c-3.12,0-5.72-.57-7.82-1.72-2.09-1.14-3.68-2.82-4.75-5.04-1.07-2.22-1.61-4.88-1.61-8v-14.17c0-3.21.54-5.9,1.61-8.07,1.07-2.17,2.68-3.82,4.82-4.97,2.14-1.14,4.72-1.72,7.74-1.72,3.21,0,5.82.58,7.82,1.75,2,1.17,3.47,2.87,4.42,5.11.95,2.24,1.42,4.97,1.42,8.18v7.38h-16.95v8.18c0,1.22.13,2.22.4,2.99.27.78.64,1.33,1.13,1.64.49.32,1.1.48,1.83.48.68,0,1.28-.16,1.79-.48.51-.32.89-.81,1.13-1.5.24-.68.37-1.58.37-2.7v-4.02h10.23v3.51c0,4.29-1.17,7.55-3.51,9.79-2.34,2.24-5.7,3.36-10.08,3.36ZM161.07,42.74h6.65v-4.16c0-1.22-.12-2.2-.37-2.96-.24-.75-.62-1.29-1.13-1.61-.51-.32-1.16-.47-1.93-.47-.73,0-1.33.17-1.79.51-.46.34-.82.94-1.06,1.79-.24.85-.36,2.06-.36,3.62v3.29Z"/>
    <path d="M193.06,69.26c-2,0-3.71-.51-5.15-1.53-1.44-1.02-2.52-2.31-3.25-3.87s-1.1-3.17-1.1-4.82c0-2.63.51-4.84,1.53-6.65,1.02-1.8,2.36-3.31,4.02-4.53,1.65-1.22,3.51-2.26,5.55-3.14,2.04-.88,4.09-1.68,6.14-2.41v-3.94c0-.92-.07-1.73-.22-2.41-.15-.68-.43-1.21-.84-1.57-.42-.37-1.01-.55-1.79-.55s-1.38.16-1.79.48c-.41.32-.71.78-.88,1.39-.17.61-.28,1.28-.33,2.01l-.22,2.92-10.45-.44c.24-4.97,1.55-8.64,3.91-11.03,2.36-2.38,5.93-3.58,10.7-3.58,4.28,0,7.45,1.18,9.5,3.54,2.05,2.36,3.07,5.47,3.07,9.31v19.65c0,1.66.04,3.13.11,4.42.07,1.29.17,2.44.29,3.43.12,1,.23,1.86.33,2.59h-9.93c-.15-1.07-.32-2.24-.51-3.51-.19-1.27-.34-2.12-.44-2.56-.49,1.75-1.41,3.32-2.78,4.71-1.36,1.39-3.19,2.08-5.48,2.08ZM197.08,61.44c.54,0,1.05-.12,1.53-.36.49-.24.91-.56,1.28-.95s.67-.75.91-1.1v-11.61c-1.02.63-1.97,1.25-2.85,1.86-.88.61-1.63,1.28-2.26,2.01s-1.12,1.53-1.46,2.41c-.34.88-.51,1.87-.51,2.99,0,1.46.29,2.62.88,3.47.58.85,1.41,1.28,2.48,1.28Z"/>
    <path d="M227.9,69.26c-3.21,0-5.69-1.14-7.41-3.43-1.73-2.29-2.59-5.79-2.59-10.52v-15.49c0-2.73.35-5.16,1.06-7.3.71-2.14,1.79-3.83,3.25-5.08s3.34-1.86,5.63-1.86c1.51,0,2.95.32,4.31.95s2.61,1.44,3.73,2.41V9.36h11.03v59.17h-11.03v-3.14c-1.22,1.17-2.5,2.11-3.83,2.81s-2.71,1.06-4.13,1.06ZM232.36,61.95c.49,0,1.03-.11,1.64-.33s1.23-.52,1.86-.91v-26.88c-.54-.29-1.09-.55-1.68-.77-.58-.22-1.17-.33-1.75-.33-1.27,0-2.15.54-2.67,1.61-.51,1.07-.77,2.36-.77,3.87v17.82c0,1.12.1,2.13.29,3.03.19.9.54,1.61,1.02,2.12.49.51,1.17.77,2.05.77Z"/>
    <path d="M267.71,69.26c-3.12,0-5.72-.57-7.81-1.72-2.1-1.14-3.68-2.82-4.75-5.04-1.07-2.22-1.61-4.88-1.61-8v-14.17c0-3.21.54-5.9,1.61-8.07,1.07-2.17,2.68-3.82,4.82-4.97,2.14-1.14,4.72-1.72,7.74-1.72,3.22,0,5.82.58,7.82,1.75,2,1.17,3.47,2.87,4.42,5.11.95,2.24,1.42,4.97,1.42,8.18v7.38h-16.95v8.18c0,1.22.13,2.22.4,2.99s.64,1.33,1.13,1.64c.49.32,1.1.48,1.83.48.68,0,1.28-.16,1.79-.48.51-.32.89-.81,1.13-1.5.24-.68.37-1.58.37-2.7v-4.02h10.23v3.51c0,4.29-1.17,7.55-3.51,9.79-2.34,2.24-5.7,3.36-10.08,3.36ZM264.43,42.74h6.65v-4.16c0-1.22-.12-2.2-.37-2.96-.24-.75-.62-1.29-1.13-1.61-.51-.32-1.16-.47-1.94-.47-.73,0-1.33.17-1.79.51s-.82.94-1.06,1.79-.36,2.06-.36,3.62v3.29Z"/>
    <path d="M288.68,68.53V9.36h15.34c3.99,0,7.41.45,10.26,1.35,2.85.9,5.04,2.5,6.57,4.78,1.54,2.29,2.3,5.45,2.3,9.5,0,2.44-.21,4.59-.62,6.46s-1.14,3.51-2.19,4.89c-1.05,1.39-2.52,2.5-4.42,3.32l8.18,28.85h-12.35l-6.79-26.81h-4.24v26.81h-12.05ZM300.73,34.56h3.51c1.95,0,3.48-.32,4.6-.95,1.12-.63,1.91-1.59,2.38-2.89.46-1.29.69-2.88.69-4.78,0-2.73-.5-4.81-1.5-6.24-1-1.44-2.86-2.15-5.59-2.15h-4.09v17.02Z"/>
    <path d="M346.38,69.33c-3.65,0-6.7-.67-9.13-2.01-2.44-1.34-4.27-3.36-5.52-6.06s-1.96-6.15-2.16-10.34l10.37-1.75c.1,2.44.35,4.47.77,6.1s1.05,2.85,1.9,3.65c.85.8,1.91,1.21,3.18,1.21,1.56,0,2.62-.49,3.18-1.46.56-.97.84-2.09.84-3.36,0-2.48-.6-4.57-1.79-6.24-1.19-1.68-2.77-3.37-4.71-5.08l-6.14-5.33c-2.19-1.85-3.98-3.94-5.37-6.28-1.39-2.34-2.08-5.21-2.08-8.62,0-4.87,1.42-8.61,4.27-11.21s6.76-3.91,11.72-3.91c2.97,0,5.4.49,7.3,1.46,1.9.97,3.37,2.28,4.42,3.91s1.78,3.41,2.19,5.33c.41,1.92.67,3.83.77,5.73l-10.3,1.53c-.1-1.8-.26-3.38-.48-4.75s-.66-2.44-1.31-3.21-1.64-1.17-2.96-1.17c-1.41,0-2.46.52-3.14,1.57-.68,1.05-1.02,2.2-1.02,3.47,0,2.09.47,3.81,1.42,5.15.95,1.34,2.25,2.74,3.91,4.2l5.99,5.26c2.48,2.14,4.61,4.59,6.39,7.34,1.78,2.75,2.67,6.15,2.67,10.19,0,2.78-.63,5.28-1.9,7.52-1.27,2.24-3.03,3.99-5.3,5.26s-4.93,1.9-8,1.9Z"/>
    <path d="M382.32,69.33c-3.65,0-6.7-.67-9.13-2.01-2.44-1.34-4.27-3.36-5.52-6.06s-1.96-6.15-2.16-10.34l10.37-1.75c.1,2.44.35,4.47.77,6.1s1.05,2.85,1.9,3.65c.85.8,1.91,1.21,3.18,1.21,1.56,0,2.62-.49,3.18-1.46.56-.97.84-2.09.84-3.36,0-2.48-.6-4.57-1.79-6.24-1.19-1.68-2.77-3.37-4.71-5.08l-6.14-5.33c-2.19-1.85-3.98-3.94-5.37-6.28-1.39-2.34-2.08-5.21-2.08-8.62,0-4.87,1.42-8.61,4.27-11.21s6.76-3.91,11.72-3.91c2.97,0,5.4.49,7.3,1.46,1.9.97,3.37,2.28,4.42,3.91s1.78,3.41,2.19,5.33c.41,1.92.67,3.83.77,5.73l-10.3,1.53c-.1-1.8-.26-3.38-.48-4.75s-.66-2.44-1.31-3.21-1.64-1.17-2.96-1.17c-1.41,0-2.46.52-3.14,1.57-.68,1.05-1.02,2.2-1.02,3.47,0,2.09.47,3.81,1.42,5.15.95,1.34,2.25,2.74,3.91,4.2l5.99,5.26c2.48,2.14,4.61,4.59,6.39,7.34,1.78,2.75,2.67,6.15,2.67,10.19,0,2.78-.63,5.28-1.9,7.52-1.27,2.24-3.03,3.99-5.3,5.26s-4.93,1.9-8,1.9Z"/>
  </g>
  <g>
    <rect x=".87" y="1.14" width="80.53" height="80.53" rx="2.21" ry="2.21" fill="#fbb03b"/>
    <path d="M70.41,12.29l-2.57-2.57c-.74-.74-1.95-.73-2.68.02l-11.4,11.81c-.68.7-1.77.75-2.53.14C41.25,13.62,28.82,8.5,15.25,7.57c-1.08-.07-2,.81-2,1.89v3.64c0,.99.77,1.78,1.75,1.85,11.56.85,22.18,5.12,30.82,11.86.87.68.94,1.99.17,2.79l-12.57,13.02c-.65.67-1.67.74-2.44.21-4.56-3.15-9.92-5.2-15.71-5.79-1.09-.11-2.03.79-2.03,1.88v3.64c0,.97.75,1.75,1.71,1.87,3.67.44,7.1,1.62,10.16,3.41,1.06.62,1.27,2.07.42,2.95l-11.76,12.19c-.34.35-.53.82-.53,1.31v2.78c0,1.04.84,1.88,1.88,1.88h2.37c.51,0,1-.21,1.35-.57l12.1-12.54c.85-.88,2.28-.72,2.95.3,2.17,3.28,3.63,7.06,4.16,11.13.13.95.9,1.69,1.86,1.69h3.65c1.1,0,2-.95,1.88-2.04-.7-6.26-3.1-12-6.75-16.76-.57-.75-.54-1.79.11-2.47l12.53-12.99c.76-.79,2.06-.78,2.78.06,7.59,8.88,12.45,20.12,13.43,32.45.08.98.87,1.75,1.86,1.75h3.7c1.09,0,1.98-.93,1.9-2.02-1.07-14.41-6.91-27.51-15.94-37.74-.65-.74-.64-1.83.04-2.54l11.32-11.74c.71-.74.7-1.91-.02-2.64Z"/>
  </g>
</svg>

